<svg id="flat" height="512" viewBox="0 0 512 512" width="512" xmlns="http://www.w3.org/2000/svg"><path d="m487.94586 94.63v329.37a15.99555 15.99555 0 0 1 -16 16h-256a15.9956 15.9956 0 0 1 -16-16v-384a15.99556 15.99556 0 0 1 16-16h201.37a16.14443 16.14443 0 0 1 11.31994 4.69l54.62012 54.62a16.14437 16.14437 0 0 1 4.68994 11.32z" fill="#5771e5"/><path d="m31.94586 496v-98.66669l-1.75056-2.91761a43.85327 43.85327 0 0 1 -6.24941-22.56233v-.00006a43.85329 43.85329 0 0 1 43.85326-43.85331h102.89185a32 32 0 0 1 22.62742 9.37258l6.62747 6.62742v60l-24-20v112z" fill="#ed6445"/><path d="m135.946 368 8 56h-32l8-56z" fill="#f7c04a"/><path d="m119.946 368-8-16 15.996-8 16.004 8-8 16z" fill="#f5a431"/><path d="m148.85211 362.21875-20.90625-13.9375-20.90624 13.9375a7.99983 7.99983 0 0 1 -11.09376-2.21875 7.99982 7.99982 0 0 1 2.21873-11.09374l25.34376-16.896a7.99771 7.99771 0 0 1 8.875 0l25.34381 16.896a7.99983 7.99983 0 0 1 2.21872 11.09374 7.99983 7.99983 0 0 1 -11.09377 2.21875z" fill="#de402f"/><path d="m103.94586 280.00543-.00348 39.99457a24 24 0 0 0 24 24 24 24 0 0 0 24-24v-40z" fill="#ffceb6"/><path d="m119.94586 288 2.34633 2.34564a19.312 19.312 0 0 0 13.65366 5.65436 24.004 24.004 0 0 0 23.99974-24.00352c.00024-4.59.00024-7.99647.00024-7.99647h-44.58359a19.41638 19.41638 0 0 0 -19.41638 19.41637 19.41636 19.41636 0 0 0 2.04984 8.68325l5.95016 11.90037z" fill="#b36f42"/><path d="m183.94586 424h8l14.34314-14.34317a5.65684 5.65684 0 0 1 4-1.65685 5.65684 5.65684 0 0 1 5.65685 5.65684v10.34318h24v24a16 16 0 0 1 -16 16h-40z" fill="#ffceb6"/><path d="m71.94586 368 32 56h80v40h-93.88186a32 32 0 0 1 -27.43978-15.53614l-30.67839-51.1306z" fill="#ed6445"/><path d="m486.49591 88h-46.55a15.99556 15.99556 0 0 1 -16-16v-46.55a15.82323 15.82323 0 0 1 4.68994 3.24l54.62012 54.62a15.82761 15.82761 0 0 1 3.23994 4.69z" fill="#89a8f5"/><path d="m320.574 118.745-32.628 65.255 24-8 8 24 32-64z" fill="#ed6445"/><g fill="#3d44d1"><path d="m239.946 232h32v16h-32z"/><path d="m287.946 232h160v16h-160z"/><path d="m239.946 272h88v16h-88z"/><path d="m343.946 272h32v16h-32z"/><path d="m239.946 312h56v16h-56z"/><path d="m402.5943 351.73682c-9.67432-9.67383-27.91357-6.02588-42.42627 8.48535-10.17358 10.17358-14.9989 22.17554-13.64685 31.77783h-26.57532v16h96v-16h-19.78808c12.78122-14.11951 15.63672-31.0625 6.43652-40.26318zm-31.11279 19.79882c6.89453-6.894 13.6665-9.144 17.311-9.144a3.65142 3.65142 0 0 1 2.4878.65869c1.64209 1.6416.70117 10.6128-8.48487 19.79932-9.18652 9.18555-18.15869 10.12646-19.79931 8.48535-1.64158-1.64164-.70113-10.61283 8.48538-19.79936z"/><path d="m431.946 392h16v16h-16z"/><path d="m287.946 392h16v16h-16z"/></g><path d="m175.94605 472h-85.88205a40.0004 40.0004 0 0 1 -34.30016-19.42052l-26.562-44.27034a7.99982 7.99982 0 0 1 2.74416-10.97572 7.99982 7.99982 0 0 1 10.97551 2.744l26.56244 44.27073a24.12188 24.12188 0 0 0 20.58005 11.65185h85.882a7.99981 7.99981 0 0 1 7.99981 7.99981v.00038a7.99981 7.99981 0 0 1 -7.99976 7.99981z" fill="#de402f"/><path d="m175.94605 432h-72.00019a7.99985 7.99985 0 0 1 -6.94586-4.03083l-28.031-49.05431a7.99982 7.99982 0 0 1 2.97661-10.91471l.00021-.00015a7.99982 7.99982 0 0 1 10.915 2.97666l25.72762 45.02334h67.35761a7.99981 7.99981 0 0 1 7.99981 7.99981v.00038a7.99981 7.99981 0 0 1 -7.99981 7.99981z" fill="#de402f"/><path d="m367.318 118.745 32.628 65.255-24-8-8 24-32-64z" fill="#ed6445"/><circle cx="343.946" cy="112" fill="#f7c04a" r="40"/></svg>