<svg height="512" viewBox="0 0 64 64" width="512" xmlns="http://www.w3.org/2000/svg"><rect fill="#3d9ae2" height="50" rx="2" width="42" x="15" y="7"/><path d="m25 33v10h-3v14h-5a2.006 2.006 0 0 1 -2-2v-45a7.008 7.008 0 0 1 7 7v4h-1a5.989 5.989 0 0 1 -1.83 4.3 8.055 8.055 0 0 1 5.83 7.7z" fill="#1e81ce"/><rect fill="#e6e7e8" height="46" rx="1" width="30" x="21" y="7"/><g fill="#d1d3d4"><path d="m22 21h-1v-7.6a6.882 6.882 0 0 1 1 3.6z"/><path d="m25 33v10h-3v10a1 1 0 0 1 -1-1v-25.92a7.551 7.551 0 0 1 1.34.98 7.919 7.919 0 0 1 2.66 5.94z"/><path d="m31.509 41.493a11.955 11.955 0 0 1 -5.509-10.093v-12.4h20v12.4a11.955 11.955 0 0 1 -5.507 10.092l-4.493 2.885z"/></g><path d="m44 21v10.4a10 10 0 0 1 -4.59 8.41l-3.41 2.19-3.41-2.19a10 10 0 0 1 -4.59-8.41v-10.4z" fill="#ff5023"/><path d="m21 57a2.006 2.006 0 0 1 2 2v2h-6l-2-1v-3z" fill="#ffa733"/><path d="m20 41v16h-3a2.006 2.006 0 0 1 -2-2v-14z" fill="#787680"/><path d="m7 33a6 6 0 0 1 6-6l2 2v12h-8z" fill="#00b39d"/><path d="m15 57v3l-2 1h-6v-2a2.006 2.006 0 0 1 2-2z" fill="#ff9811"/><path d="m15 55a2.006 2.006 0 0 0 2 2h-2z" fill="#787680"/><path d="m17 24.46v2.54l-2 2-2-2v-2.54l2 .54a3.989 3.989 0 0 0 2-.54z" fill="#ffb655"/><path d="m21 28.54a5.931 5.931 0 0 0 -4-1.54l-2 2v12h8v-8a5.947 5.947 0 0 0 -2-4.46z" fill="#00ccb3"/><path d="m15 55v2h-5v-16h5v3z" fill="#57565c"/><path d="m41 28v4h-3v3h-4v-3h-3v-4h3v-3h4v3z" fill="#ff9811"/><path d="m25 3v4 4h22v-4-4z" fill="#ff9811"/><path d="m17 24.46v1a3.974 3.974 0 0 1 -4 0v-1l2 .54a3.989 3.989 0 0 0 2-.54z" fill="#ffa733"/><path d="m11 17v4a4 4 0 0 0 8 0v-4z" fill="#ffc477"/><path d="m15 12a5 5 0 0 0 -5 5v2h2.34a4.006 4.006 0 0 0 2.66-1.01c.06-.05.12-.11.17-.16l.83-.83 1.41 1.41a2.006 2.006 0 0 0 1.42.59h1.17v-2a5 5 0 0 0 -5-5z" fill="#57565c"/><path d="m19 32h2v9h-2z" fill="#00b39d"/><path d="m9 32h2v9h-2z" fill="#009986"/></svg>