<svg height="480pt" viewBox="0 0 480.01574 480" width="480pt" xmlns="http://www.w3.org/2000/svg"><path d="m424.015625 120.007812v-80c0-4.417968-3.582031-8-8-8h-32v16h24v72zm0 0"/><path d="m56.015625 240.007812v200c0 4.417969 3.582031 8 8 8h320c4.417969 0 8-3.582031 8-8v-56h-16v48h-304v-192zm0 0"/><path d="m315.328125.808594c-.25-.113282-.488281-.175782-.746094-.265625-.667969-.230469-1.363281-.367188-2.070312-.414063-.175781-.0312498-.328125-.1210935-.496094-.1210935h-248c-4.417969 0-8 3.5820315-8 7.9999995v16h16v-8h232v64c0 4.417969 3.582031 8 8 8h64v40h16v-48c0-.167968-.085937-.320312-.097656-.496093-.042969-.707031-.183594-1.402344-.414063-2.070313-.089844-.257812-.152344-.496094-.265625-.746094-.386719-.871093-.929687-1.664062-1.597656-2.34375l-72-72c-.675781-.644531-1.457031-1.167968-2.3125-1.542968zm49.375 71.199218h-44.6875v-44.6875zm0 0"/><path d="m184.015625 336.007812v64c0 4.417969 3.582031 8 8 8h104v-16h-96v-48h40v-16h-48c-4.417969 0-8 3.582032-8 8zm0 0"/><path d="m216.015625 360.007812h48v16h-48zm0 0"/><path d="m424.015625 136.007812c-30.910156.039063-55.960937 25.089844-56 56v.800782l-40.800781 43.070312-25.542969-25.542968c-3.125-3.125-8.1875-3.125-11.3125 0l-72 72c-3.121094 3.125-3.121094 8.1875 0 11.3125l112 112c3.125 3.121093 8.1875 3.121093 11.3125 0l24-24 42.34375-42.328126v124.6875h-312v16h320c4.417969 0 8-3.582031 8-8v-192h-16v36.6875l-27.886719-27.886718 43.085938-40.800782h.800781c30.929687 0 56-25.070312 56-56 0-30.929687-25.070313-56-56-56zm-88 252.6875-100.6875-100.6875 12.6875-12.6875 100.6875 100.6875zm60.6875-60.6875-36.6875 36.6875-100.6875-100.6875 36.6875-36.6875 20.191406 20.191407-18 18.992187c-3.007812 3.152344-2.9375 8.128906.152344 11.199219l40 40c3.0625 3.0625 8.007813 3.128906 11.152344.152344l19-18zm27.3125-96h-4c-2.046875 0-4.015625.785157-5.503906 2.191407l-70.34375 66.609375-28.953125-28.953125 66.640625-70.34375c1.398437-1.492188 2.167969-3.460938 2.160156-5.503907v-4c0-22.089843 17.910156-40 40-40s40 17.910157 40 40c0 22.089844-17.910156 40-40 40zm0 0"/><path d="m152.015625 232.007812h80v16h-80zm0 0"/><path d="m104.015625 264.007812h96v16h-96zm0 0"/><path d="m176.015625 200.007812h96v16h-96zm0 0"/><path d="m104.015625 296.007812h48v16h-48zm0 0"/><path d="m104.015625 328.007812h64v16h-64zm0 0"/><path d="m104.015625 360.007812h64v16h-64zm0 0"/><path d="m104.015625 392.007812h64v16h-64zm0 0"/><path d="m104.015625 232.007812h32v16h-32zm0 0"/><path d="m168.015625 296.007812h32v16h-32zm0 0"/><path d="m200.015625 160.007812h80v16h-80zm0 0"/><path d="m96.015625 224.007812c51.667969-.058593 94.023437-41.003906 95.832031-92.640624 4.320313 3.617187 9.902344 5.363281 15.511719 4.847656 4.121094 4.9375 10.222656 7.792968 16.65625 7.792968s12.535156-2.855468 16.65625-7.792968c6.40625.574218 12.734375-1.722656 17.28125-6.269532 4.546875-4.546874 6.84375-10.875 6.269531-17.28125 4.941406-4.121093 7.792969-10.222656 7.792969-16.65625 0-6.433593-2.851563-12.535156-7.792969-16.65625.574219-6.40625-1.722656-12.734374-6.269531-17.28125-4.546875-4.546874-10.875-6.84375-17.28125-6.269531-4.121094-4.9375-10.222656-7.792969-16.65625-7.792969s-12.535156 2.855469-16.65625 7.792969c-6.40625-.574219-12.734375 1.722657-17.28125 6.269531-4.546875 4.546876-6.84375 10.875-6.269531 17.28125-1.183594.976563-2.257813 2.082032-3.199219 3.296876-22.195313-41.398438-71.082031-60.65625-115.546875-45.519532-44.464844 15.140625-71.449219 60.226563-63.773438 106.566406 7.675782 46.339844 47.757813 80.320313 94.726563 80.3125zm99.726563-133.28125c2.132812-.757812 3.84375-2.382812 4.710937-4.472656.863281-2.089844.804687-4.449218-.164063-6.492187-1.039062-2.148438-.605468-4.714844 1.078126-6.402344 1.6875-1.683594 4.253906-2.117187 6.402343-1.078125 2.042969.96875 4.402344 1.027344 6.492188.164062 2.089843-.867187 3.714843-2.578124 4.472656-4.710937.792969-2.238281 2.90625-3.734375 5.28125-3.734375s4.488281 1.496094 5.28125 3.734375c.757813 2.132813 2.382813 3.84375 4.472656 4.710937 2.089844.863282 4.449219.804688 6.496094-.164062 2.144531-1.039062 4.710937-.605469 6.398437 1.078125 1.683594 1.6875 2.117188 4.253906 1.078126 6.402344-.96875 2.042969-1.027344 4.402343-.164063 6.492187.867187 2.089844 2.578125 3.714844 4.710937 4.472656 2.238282.792969 3.734376 2.90625 3.734376 5.28125s-1.496094 4.488282-3.734376 5.28125c-2.132812.757813-3.84375 2.382813-4.710937 4.472657-.863281 2.089843-.804687 4.449219.164063 6.496093 1.105468 2.136719.65625 4.75-1.101563 6.398438-1.65625 1.742188-4.257813 2.1875-6.402344 1.105469-2.042969-.972657-4.402343-1.03125-6.492187-.164063-2.089844.863282-3.714844 2.574219-4.472656 4.707032-.792969 2.238281-2.910157 3.734374-5.28125 3.734374-2.375 0-4.488282-1.496093-5.28125-3.734374-.757813-2.136719-2.386719-3.847657-4.480469-4.710938-.972657-.398438-2.011719-.605469-3.0625-.609375-1.1875.003906-2.359375.277344-3.425781.800781-2.144532 1.035156-4.710938.601563-6.398438-1.082031-1.683594-1.6875-2.117188-4.253906-1.078125-6.398437.96875-2.042969 1.027344-4.402344.164063-6.492188-.867188-2.09375-2.578126-3.71875-4.710938-4.476562-2.238281-.789063-3.734375-2.90625-3.734375-5.28125 0-2.371094 1.496094-4.488282 3.734375-5.277344zm-99.726563-42.71875c44.183594 0 80 35.816407 80 80 0 44.183594-35.816406 80-80 80s-80-35.816406-80-80c.046875-44.164062 35.835937-79.953124 80-80zm0 0"/><path d="m58.359375 173.664062c3.125 3.121094 8.1875 3.121094 11.3125 0l80-80-11.3125-11.3125-74.34375 74.34375-18.34375-18.34375-11.3125 11.3125zm0 0"/></svg>