<svg id="Layer_1" enable-background="new 0 0 510.1 510.1" height="512" viewBox="0 0 510.1 510.1" width="512" xmlns="http://www.w3.org/2000/svg"><g><g><path d="m504.271 249.221c0 79.337-37.072 150.016-94.839 195.658-42.451 33.542-96.079 53.562-154.382 53.562-137.641 0-231.864-109.87-231.864-247.511 0-30.078-12.028-60.621-2.264-87.318 34.918-95.47 126.565-163.612 234.128-163.612 137.641 0 249.221 111.58 249.221 249.221z" fill="#2d56a1"/></g><path d="m385.893 412.318h-27.514c-5.444 0-9.857-4.413-9.857-9.857 0-4.595-3.174-8.564-7.65-9.606-14.176-3.298-43.278-14.144-45.311-47.807l-3.173-46.13c-.831-12.077 5.253-23.464 15.538-29.848 14.083-8.742 25.767-22.792 34.999-37.678 6.691-10.79 18.476-17.194 31.172-17.16h.216c40.107 0 72.737-29.962 72.737-66.791 0-29.328-20.696-54.292-49.379-63.245-6.638-2.072-11.007-8.399-10.566-15.339.532-8.368.872-16.872 1.009-25.49.049-3.046-1.544-5.885-4.152-7.46l-.03-.018c-1.343-.812-2.883-1.241-4.452-1.241h-205.968c-3.067 0-5.529 2.522-5.445 5.588.27 9.807.918 30.14 1.914 41.392-34.252 5.396-60.405 32.844-60.405 65.812 0 36.829 32.629 66.791 72.736 66.791 6.977 0 13.719-.925 20.111-2.617 12.82 26.788 33.566 56.958 62.123 64.681-.405 6.479-3.777 60.402-4.279 68.424-.039.629-.09 1.255-.151 1.878-3.145 31.988-41.205 47.13-66.148 26.856-56.217-45.694-92.14-115.39-92.14-193.482 0-.619.002-1.238.007-1.855.342-46.879-64.806-58.531-80.912-14.505-9.766 26.695-15.095 55.529-15.095 85.607 0 138.461 112.321 249.221 249.221 249.221 47.322 0 95.058-13.373 136.986-41.012v-.015c5.977-3.941 11.775-8.132 17.379-12.557 9.6-7.581 2.453-22.849-9.544-20.465-.181.036-.362.072-.542.107-3.781.743-7.293-2.185-7.293-6.038.001-3.39-2.749-6.141-6.142-6.141zm-3.855-297.252c1.736-10.97 13.89-16.719 23.503-11.155 15.937 9.224 26.51 25.287 26.51 43.531 0 28.558-25.9 51.791-57.737 51.791h-.149c-7.113-.008-12.045-7.054-9.651-13.752 7.49-20.957 13.455-44.701 17.524-70.415zm-257.462 32.376c0-25.25 20.252-46.325 46.947-50.872 4.528 38.175 13.141 72.689 24.746 101.124-36.559 8.173-71.693-16.803-71.693-50.252z" fill="#1a396b"/><g><g><path d="m215.766 149.897c.661 3.119 1.021 6.332 1.021 9.622 0 28.558-25.9 51.791-57.737 51.791-31.836 0-57.736-23.233-57.736-51.791 0-3.887.495-7.669 1.404-11.313h-15.25c-.03 0-.059-.002-.089-.002-.687 3.681-1.065 7.458-1.065 11.316 0 36.829 32.629 66.791 72.736 66.791s72.737-29.962 72.737-66.791c0-3.267-.258-6.479-.755-9.622h-15.266z" fill="#f8e000"/></g><g><path d="m94.715 157.278c3.634 0 6.718-2.613 7.373-6.188 4.5-24.563 28.326-43.363 56.962-43.363 28.637 0 52.463 18.8 56.963 43.363.655 3.575 3.738 6.188 7.373 6.188 4.66 0 8.22-4.214 7.387-8.798-5.745-31.593-35.711-55.753-71.722-55.753s-65.976 24.159-71.721 55.753c-.835 4.584 2.725 8.798 7.385 8.798z" fill="#faf58c"/></g><g><path d="m351.05 226.31c-40.107 0-72.736-29.962-72.736-66.791s32.629-66.792 72.736-66.792 72.737 29.963 72.737 66.792-32.63 66.791-72.737 66.791zm0-118.583c-31.836 0-57.736 23.233-57.736 51.792 0 28.558 25.9 51.791 57.736 51.791 31.837 0 57.737-23.233 57.737-51.791 0-28.559-25.901-51.792-57.737-51.792z" fill="#f8e000"/></g><g><path d="m324.95 406.28c-27.742 0-50.748-21.478-52.652-49.154l-7.618-110.746h-20.226c.224 1.444.345 2.904.345 4.37v116.088c0 9.209-10.962 18.457-21.265 25.115-11.031 7.128-17.748 19.31-17.748 32.443h119.473v-18.116z" fill="#ffc305"/></g><g><path d="m224.392 404.097c1.593-.474 3.155-1.021 4.682-1.637 22.352-9.023 35.036-32.814 31.138-56.601l-16.302-99.479-6.905 110.418c-1.739 27.814-24.805 49.482-52.674 49.482v18.115h25v-.438c0-9.247 6.196-17.224 15.061-19.86z" fill="#ff8500"/></g><g><path d="m220.331 424.396h148.442v74.046h-148.442z" fill="#ff8500"/></g><g><path d="m237.215 447.405v-23.009h-96.397v66.412 19.292h96.397 131.558v-19.293h-88.155c-23.971 0-43.403-19.432-43.403-43.402z" fill="#fa690f"/></g><g><path d="m310.919 256.238c32.333-42.422 54.01-120.364 54.01-209.512h-171.83v83.632c0 66.437 51.527 121.49 117.82 125.88z" fill="#f8e000"/></g><g><path d="m303.583 238.564c-18.392 0-35.73-9.97-50.969-27.595-3.632-4.2 1.008-10.526 6.081-8.269.054.024.109.049.164.075l12.772 5.939c6.855 3.188 14.544-2.399 13.631-9.904l-1.701-13.982c-.343-2.821.576-5.649 2.511-7.73l9.595-10.311c5.15-5.535 2.213-14.574-5.207-16.024l-13.823-2.703c-2.789-.545-5.195-2.293-6.575-4.777l-6.842-12.311c-3.673-6.608-13.177-6.608-16.849 0l-6.842 12.311c-1.38 2.484-3.786 4.232-6.575 4.777-.058.011-.116.023-.174.034-8.076 1.586-16.081-3.094-18.629-10.92-8.671-26.626-14.97-57.278-18.211-90.449h-51.279c0 134.467 49.308 243.474 110.134 243.474 21.009 0 40.643-13.01 57.346-35.581 4.966-6.71.013-16.092-8.335-16.055-.074.001-.148.001-.223.001z" fill="#ffc305"/></g><g><path d="m263.219 113.972 6.842 12.311c1.38 2.484 3.786 4.232 6.575 4.777l13.823 2.703c7.42 1.451 10.357 10.49 5.207 16.024l-9.595 10.311c-1.936 2.08-2.855 4.909-2.511 7.73l1.701 13.982c.913 7.505-6.776 13.091-13.631 9.904l-12.772-5.939c-2.577-1.198-5.551-1.198-8.127 0l-12.772 5.939c-6.855 3.188-14.544-2.399-13.631-9.904l1.701-13.982c.343-2.821-.576-5.649-2.511-7.73l-9.595-10.311c-5.15-5.535-2.213-14.574 5.207-16.024l13.823-2.703c2.789-.545 5.195-2.293 6.575-4.777l6.842-12.311c3.673-6.608 13.177-6.608 16.849 0z" fill="#fff"/></g><g><path d="m318.574 444.695h-100.418v46.242h100.418c3.692 0 6.685-2.993 6.685-6.685v-32.872c0-3.692-2.993-6.685-6.685-6.685z" fill="#ffc305"/></g><g><path d="m220.331 484.252v-32.872c0-3.692 2.993-6.685 6.685-6.685h-36c-3.692 0-6.685 2.993-6.685 6.685v32.872c0 3.692 2.993 6.685 6.685 6.685h36c-3.692 0-6.685-2.993-6.685-6.685z" fill="#ff8500"/></g></g></g></svg>