<svg height="464pt" viewBox="-4 0 464 464" width="464pt" xmlns="http://www.w3.org/2000/svg"><path d="m72 0h312c13.253906 0 24 10.746094 24 24v376h-336zm0 0" fill="#0093ba"/><path d="m40 32h336v400h-336zm0 0" fill="#2fbadb"/><path d="m456 353.65625v-35.3125l-29.601562-7.398438c-2.394532-9.417968-6.140626-18.441406-11.117188-26.785156l15.710938-26.183594-24.96875-24.96875-26.183594 15.710938c-3.894532-2.316406-7.941406-4.375-12.113282-6.160156-4.753906-2.023438-9.660156-3.679688-14.671874-4.949219l-7.398438-29.609375h-35.3125l-7.398438 29.601562c-9.417968 2.394532-18.441406 6.140626-26.785156 11.117188l-26.183594-15.710938-24.96875 24.96875 15.710938 26.183594c-4.976562 8.34375-8.722656 17.367188-11.117188 26.785156l-29.601562 7.398438v35.3125l29.601562 7.398438c2.394532 9.417968 6.140626 18.441406 11.117188 26.785156l-15.710938 26.183594 24.96875 24.96875 26.183594-15.710938c8.34375 4.976562 17.367188 8.722656 26.785156 11.117188l7.398438 29.601562h35.3125l7.398438-29.601562c9.417968-2.394532 18.441406-6.140626 26.785156-11.117188l26.183594 15.710938 24.96875-24.96875-15.710938-26.183594c4.976562-8.34375 8.722656-17.367188 11.117188-26.785156zm-128 38.34375c-30.929688 0-56-25.070312-56-56s25.070312-56 56-56 56 25.070312 56 56-25.070312 56-56 56zm0 0" fill="#ccdce5"/><path d="m328 32v16c0 13.253906 10.746094 24 24 24s24-10.746094 24-24v-16zm0 0" fill="#ffc119"/><path d="m352 0c-13.253906 0-24 10.746094-24 24v24c0 13.253906 10.746094 24 24 24h-320c-13.253906 0-24-10.746094-24-24v-24c0-13.253906 10.746094-24 24-24zm0 0" fill="#047fa7"/><path d="m24 360h120l32 16-32 16h-120c-8.835938 0-16-7.164062-16-16s7.164062-16 16-16zm0 0" fill="#ffc119"/><path d="m0 112h16v160h-16zm0 0" fill="#7ecce6"/><path d="m136 112c-21.222656-.027344-41.582031 8.40625-56.566406 23.433594l56.566406 56.566406h80c0-44.183594-35.816406-80-80-80zm0 0" fill="#ffc119"/><g fill="#0093ba"><path d="m88 224h16v16h-16zm0 0"/><path d="m120 224h80v16h-80zm0 0"/><path d="m72 256h128v16h-128zm0 0"/><path d="m248 136h16v16h-16zm0 0"/><path d="m72 288h104v16h-104zm0 0"/><path d="m165.65625 165.65625-11.3125-11.3125 48-48c1.5-1.5 3.535156-2.34375 5.65625-2.34375h104v16h-100.6875zm0 0"/><path d="m328 104h16v16h-16zm0 0"/><path d="m280 136h64v16h-64zm0 0"/><path d="m248 168h96v16h-96zm0 0"/></g><path d="m176 376-32-16h-16v32h16zm0 0" fill="#ea732d"/></svg>